<?xml version="1.0" standalone="no"?><!DOCTYPE svg PUBLIC "-//W3C//DTD SVG 1.1//EN" "http://www.w3.org/Graphics/SVG/1.1/DTD/svg11.dtd"><svg t="1678594239586" class="icon" viewBox="0 0 1024 1024" version="1.1" xmlns="http://www.w3.org/2000/svg" p-id="16130" xmlns:xlink="http://www.w3.org/1999/xlink" width="200" height="200"><path d="M512 962.56C263.168 962.56 61.44 760.832 61.44 512S263.168 61.44 512 61.44s450.56 201.728 450.56 450.56-201.728 450.56-450.56 450.56z m0-368.64a81.92 81.92 0 1 0 0-163.84 81.92 81.92 0 0 0 0 163.84z m-40.96-358.4c-130.06848 0-235.52 105.45152-235.52 235.52a30.72 30.72 0 0 0 61.44 0 174.08 174.08 0 0 1 174.08-174.08 30.72 30.72 0 0 0 0-61.44z m81.92 552.96c130.06848 0 235.52-105.45152 235.52-235.52a30.72 30.72 0 0 0-61.44 0 174.08 174.08 0 0 1-174.08 174.08 30.72 30.72 0 0 0 0 61.44z" p-id="16131"></path></svg>